<?xml version="1.0" standalone="no"?>
<!DOCTYPE svg PUBLIC "-//W3C//DTD SVG 20010904//EN"
 "http://www.w3.org/TR/2001/REC-SVG-20010904/DTD/svg10.dtd">
<svg version="1.0" xmlns="http://www.w3.org/2000/svg"
 width="700.000000pt" height="700.000000pt" viewBox="0 0 700.000000 700.000000"
 preserveAspectRatio="xMidYMid meet">
<metadata>
Created by potrace 1.11, written by Peter Selinger 2001-2013
</metadata>
<g transform="translate(0.000000,700.000000) scale(0.100000,-0.100000)"
fill="#000000" stroke="none">
<path d="M1105 6991 c-29 -12 -194 -187 -293 -311 -254 -317 -452 -683 -579
-1070 -37 -113 -95 -338 -112 -435 -6 -33 -13 -71 -16 -84 -2 -13 -7 -49 -11
-80 -3 -31 -8 -63 -9 -72 -19 -103 -27 -537 -12 -699 30 -334 110 -675 225
-965 11 -27 26 -66 33 -85 28 -73 165 -339 225 -438 134 -219 296 -431 455
-593 67 -69 91 -87 119 -91 69 -10 126 30 136 97 8 54 -2 73 -81 155 -35 36
-89 96 -121 135 -33 38 -67 78 -76 88 -27 31 -149 205 -207 296 -189 296 -365
747 -426 1086 -6 33 -21 131 -29 185 -30 207 -35 568 -11 755 20 155 30 216
51 320 123 591 402 1123 814 1555 60 63 90 112 90 146 0 34 -32 83 -65 98 -36
17 -69 19 -100 7z"/>
<path d="M5793 6984 c-34 -17 -63 -67 -63 -106 1 -34 17 -57 106 -155 45 -48
103 -115 130 -148 26 -33 51 -62 54 -65 22 -18 154 -211 227 -330 168 -275
335 -695 378 -950 3 -19 10 -51 15 -70 5 -19 11 -53 15 -75 3 -22 10 -67 15
-100 9 -58 16 -131 25 -245 6 -68 6 -347 0 -415 -15 -195 -21 -243 -57 -425
-109 -567 -394 -1123 -794 -1549 -118 -124 -134 -163 -94 -228 27 -46 56 -57
130 -54 55 2 376 380 524 616 78 126 109 180 176 315 138 275 261 643 304 910
40 246 51 373 51 615 0 173 -9 356 -19 412 -3 12 -7 47 -11 78 -3 31 -10 80
-16 108 -5 29 -12 68 -15 87 -3 19 -8 38 -10 41 -2 4 -6 24 -10 45 -9 58 -79
298 -117 404 -153 422 -388 811 -695 1150 -42 47 -91 98 -109 113 -41 36 -96
44 -140 21z"/>
<path d="M1614 6490 c-29 -12 -111 -94 -224 -226 -39 -44 -195 -264 -216 -304
-11 -19 -21 -37 -24 -40 -8 -8 -30 -49 -79 -145 -70 -137 -122 -262 -163 -390
-26 -82 -64 -219 -74 -270 -44 -216 -59 -366 -58 -590 0 -214 11 -327 50 -525
92 -464 291 -874 605 -1245 37 -45 93 -105 124 -134 56 -53 57 -53 108 -48 67
6 107 49 107 113 0 41 -13 64 -64 118 -224 237 -398 505 -510 783 -42 105 -89
243 -101 295 -27 123 -36 161 -39 167 -2 3 -7 31 -11 61 -4 30 -9 66 -11 80
-20 132 -26 459 -11 600 9 90 34 240 49 295 5 22 11 47 13 55 2 8 8 35 15 60
7 25 12 47 13 50 0 8 62 179 87 240 58 146 180 364 283 505 62 85 183 229 227
270 57 53 74 113 49 167 -22 47 -97 77 -145 58z"/>
<path d="M5300 6488 c-14 -4 -36 -24 -49 -43 -19 -28 -23 -44 -18 -81 4 -39
13 -54 74 -117 336 -351 565 -809 647 -1300 8 -45 17 -104 21 -132 11 -74 14
-450 5 -520 -5 -33 -11 -80 -14 -105 -36 -275 -135 -582 -268 -830 -89 -166
-227 -364 -339 -485 -20 -22 -55 -60 -78 -85 -23 -25 -44 -55 -48 -68 -19 -77
36 -152 113 -152 36 0 49 7 93 46 82 74 248 278 342 422 196 299 327 621 399
984 5 26 12 69 16 95 3 26 8 57 10 67 18 98 25 473 10 611 -42 400 -175 807
-366 1122 -23 38 -46 77 -53 88 -35 58 -141 201 -211 285 -109 130 -182 200
-209 201 -12 0 -29 2 -37 3 -8 2 -26 -1 -40 -6z"/>
<path d="M2042 5923 c-94 -96 -117 -124 -199 -242 -142 -202 -284 -534 -318
-741 -3 -19 -10 -60 -15 -90 -30 -175 -32 -401 -5 -620 19 -146 98 -405 173
-564 96 -202 253 -422 397 -558 91 -86 232 2 191 120 -6 18 -29 52 -52 75
-265 275 -439 651 -483 1043 -12 114 -6 353 13 469 61 371 220 685 491 969 23
24 42 64 40 86 -1 8 -3 24 -3 36 -1 11 -15 34 -31 50 -25 25 -39 31 -81 33
-50 2 -51 2 -118 -66z"/>
<path d="M4769 5967 c-33 -29 -49 -75 -41 -115 4 -19 39 -68 86 -121 44 -49
108 -129 143 -178 62 -86 177 -302 208 -393 75 -214 105 -377 109 -590 4 -194
-6 -287 -51 -470 -70 -287 -204 -538 -413 -770 -78 -87 -80 -91 -84 -134 -6
-63 54 -127 114 -121 14 1 32 3 41 4 36 3 192 181 303 346 132 197 250 481
289 695 3 14 8 36 11 50 26 109 37 375 23 545 -36 437 -240 890 -538 1197 -74
77 -76 78 -125 78 -36 -1 -56 -6 -75 -23z"/>
<path d="M3378 5210 c-436 -79 -694 -527 -546 -946 75 -212 276 -390 500 -445
l48 -11 2 -1869 3 -1869 31 -31 c23 -23 44 -33 75 -36 39 -4 48 -1 84 30 l40
35 2 1867 c2 1028 5 1870 7 1872 2 2 16 6 30 9 181 32 385 188 473 359 59 116
76 181 79 315 3 115 -6 175 -40 268 -72 198 -246 363 -451 428 -89 28 -252 40
-337 24z"/>
</g>
</svg>
